curl
version=1
nRows=330
nColumns=3
inDegrees=yes
endheader
time	r_shoulder_elev	r_elbow_flex
0.0000	27.052014	18.269674
0.0100	27.064256	18.287574
0.0200	27.076845	18.305070
0.0300	27.089725	18.322025
0.0400	27.102839	18.338300
0.0500	27.116126	18.353762
0.0600	27.129523	18.368282
0.0700	27.142964	18.381740
0.0800	27.156383	18.394023
0.0900	27.169711	18.405031
0.1000	27.182880	18.414676
0.1100	27.195825	18.422886
0.1200	27.208478	18.429603
0.1300	27.220777	18.434789
0.1400	27.232660	18.438423
0.1500	27.244070	18.440507
0.1600	27.254956	18.441059
0.1700	27.265269	18.440123
0.1800	27.274968	18.437760
0.1900	27.284018	18.434054
0.2000	27.292390	18.429109
0.2100	27.300065	18.423047
0.2200	27.307029	18.416008
0.2300	27.313278	18.408150
0.2400	27.318815	18.399641
0.2500	27.323651	18.390663
0.2600	27.327806	18.381407
0.2700	27.331308	18.372071
0.2800	27.334190	18.362854
0.2900	27.336495	18.353959
0.3000	27.338269	18.345586
0.3100	27.339566	18.337929
0.3200	27.340442	18.331177
0.3300	27.340958	18.325508
0.3400	27.341179	18.321089
0.3500	27.341168	18.318069
0.3600	27.340991	18.316585
0.3700	27.340712	18.316751
0.3800	27.340393	18.318662
0.3900	27.340094	18.322388
0.4000	27.339869	18.327976
0.4100	27.339768	18.335445
0.4200	27.339831	18.344786
0.4300	27.340095	18.355961
0.4400	27.340585	18.368900
0.4500	27.341318	18.383503
0.4600	27.342300	18.399637
0.4700	27.343527	18.417136
0.4800	27.344983	18.435806
0.4900	27.346641	18.455418
0.5000	27.348463	18.475716
0.5100	27.350396	18.496419
0.5200	27.352381	18.517219
0.5300	27.354344	18.537788
0.5400	27.356201	18.557778
0.5500	27.357861	18.576831
0.5600	27.359223	18.594575
0.5700	27.360177	18.610636
0.5800	27.360610	18.624636
0.5900	27.360403	18.636202
0.6000	27.359435	18.644971
0.6100	27.357584	18.650591
0.6200	27.354729	18.652730
0.6300	27.350752	18.651075
0.6400	27.345540	18.645344
0.6500	27.338987	18.635284
0.6600	27.330997	18.620677
0.6700	27.321485	18.601347
0.6800	27.310377	18.577159
0.6900	27.297616	18.548029
0.7000	27.283162	18.513920
0.7100	27.266992	18.474855
0.7200	27.249104	18.430909
0.7300	27.229516	18.382224
0.7400	27.208267	18.329000
0.7500	27.185420	18.271507
0.7600	27.161062	18.210081
0.7700	27.135299	18.145125
0.7800	27.108265	18.077116
0.7900	27.080115	18.006597
0.8000	27.051025	17.934183
0.8100	27.021194	17.860556
0.8200	26.990843	17.786465
0.8300	26.960209	17.712727
0.8400	26.929548	17.640216
0.8500	26.899133	17.569868
0.8600	26.869248	17.502673
0.8700	26.840191	17.439670
0.8800	26.812268	17.381942
0.8900	26.785793	17.330612
0.9000	26.761081	17.286837
0.9100	26.738451	17.251799
0.9200	26.718218	17.226702
0.9300	26.700694	17.212762
0.9400	26.686180	17.211206
0.9500	26.674968	17.223257
0.9600	26.667337	17.250133
0.9700	26.663546	17.293039
0.9800	26.663836	17.353162
0.9900	26.668425	17.431661
1.0000	26.677504	17.529666
1.0100	26.691239	17.648272
1.0200	26.709763	17.788532
1.0300	26.733179	17.951458
1.0400	26.761556	18.138012
1.0500	26.794926	18.349111
1.0600	26.833289	18.585617
1.0700	26.876605	18.848342
1.0800	26.924799	19.138048
1.0900	26.977757	19.455440
1.1000	27.035333	19.801176
1.1100	27.097341	20.175861
1.1200	27.163567	20.580052
1.1300	27.233762	21.014258
1.1400	27.307649	21.478941
1.1500	27.384926	21.974518
1.1600	27.465266	22.501359
1.1700	27.548325	23.059793
1.1800	27.633741	23.650102
1.1900	27.721144	24.272527
1.2000	27.810153	24.927264
1.2100	27.900386	25.614466
1.2200	27.991461	26.334239
1.2300	28.083004	27.086647
1.2400	28.174646	27.871707
1.2500	28.266036	28.689388
1.2600	28.356838	29.539611
1.2700	28.446736	30.422247
1.2800	28.535439	31.337116
1.2900	28.622680	32.283985
1.3000	28.708224	33.262568
1.3100	28.791863	34.272522
1.3200	28.873424	35.313448
1.3300	28.952767	36.384888
1.3400	29.029785	37.486324
1.3500	29.104410	38.617177
1.3600	29.176605	39.776802
1.3700	29.246374	40.964489
1.3800	29.313751	42.179460
1.3900	29.378809	43.420865
1.4000	29.441653	44.687782
1.4100	29.502422	45.979212
1.4200	29.561286	47.294083
1.4300	29.618443	48.631242
1.4400	29.674122	49.989461
1.4500	29.728573	51.367434
1.4600	29.782074	52.763777
1.4700	29.834918	54.177035
1.4800	29.887418	55.605679
1.4900	29.939901	57.048116
1.5000	29.992702	58.502690
1.5100	30.046164	59.967688
1.5200	30.100633	61.441351
1.5300	30.156454	62.921880
1.5400	30.213966	64.407447
1.5500	30.273498	65.896209
1.5600	30.335366	67.386313
1.5700	30.399866	68.875921
1.5800	30.467274	70.363216
1.5900	30.537836	71.846423
1.6000	30.611768	73.323821
1.6100	30.689252	74.793764
1.6200	30.770429	76.254690
1.6300	30.855398	77.705143
1.6400	30.944214	79.143784
1.6500	31.036884	80.569399
1.6600	31.133363	81.980919
1.6700	31.233558	83.377418
1.6800	31.337321	84.758125
1.6900	31.444456	86.122427
1.7000	31.554713	87.469866
1.7100	31.667794	88.800140
1.7200	31.783353	90.113099
1.7300	31.901002	91.408734
1.7400	32.020310	92.687170
1.7500	32.140812	93.948655
1.7600	32.262014	95.193542
1.7700	32.383392	96.422274
1.7800	32.504409	97.635366
1.7900	32.624510	98.833385
1.8000	32.743137	100.016923
1.8100	32.859732	101.186584
1.8200	32.973743	102.342950
1.8300	33.084633	103.486567
1.8400	33.191887	104.617917
1.8500	33.295017	105.737395
1.8600	33.393567	106.845291
1.8700	33.487126	107.941768
1.8800	33.575323	109.026843
1.8900	33.657841	110.100374
1.9000	33.734419	111.162048
1.9100	33.804854	112.211369
1.9200	33.869005	113.247653
1.9300	33.926798	114.270026
1.9400	33.978222	115.277429
1.9500	34.023336	116.268617
1.9600	34.062264	117.242172
1.9700	34.095196	118.196518
1.9800	34.122382	119.129931
1.9900	34.144133	120.040563
2.0000	34.160813	120.926461
2.0100	34.172836	121.785590
2.0200	34.180659	122.615856
2.0300	34.184774	123.415133
2.0400	34.185701	124.181285
2.0500	34.183982	124.912192
2.0600	34.180171	125.605775
2.0700	34.174824	126.260014
2.0800	34.168496	126.872973
2.0900	34.161727	127.442821
2.1000	34.155035	127.967843
2.1100	34.148913	128.000000
2.1200	34.143817	128.000000
2.1300	34.140159	128.000000
2.1400	34.138306	128.000000
2.1500	34.138571	128.000000
2.1600	34.141208	128.000000
2.1700	34.146413	128.000000
2.1800	34.154315	128.000000
2.1900	34.164983	128.000000
2.2000	34.178416	128.000000
2.2100	34.194552	128.000000
2.2200	34.213262	128.000000
2.2300	34.234357	128.000000
2.2400	34.257589	128.000000
2.2500	34.282656	128.000000
2.2600	34.309205	128.000000
2.2700	34.336837	128.000000
2.2800	34.365116	128.000000
2.2900	34.393571	128.000000
2.3000	34.421707	127.918081
2.3100	34.449008	127.412333
2.3200	34.474947	126.867938
2.3300	34.498995	126.286859
2.3400	34.520624	125.671122
2.3500	34.539320	125.022801
2.3600	34.554587	124.344000
2.3700	34.565955	123.636845
2.3800	34.572990	122.903464
2.3900	34.575296	122.145981
2.4000	34.572526	121.366496
2.4100	34.564383	120.567075
2.4200	34.550629	119.749739
2.4300	34.531083	118.916447
2.4400	34.505633	118.069087
2.4500	34.474229	117.209468
2.4600	34.436891	116.339302
2.4700	34.393706	115.460202
2.4800	34.344829	114.573672
2.4900	34.290480	113.681096
2.5000	34.230943	112.783736
2.5100	34.166560	111.882726
2.5200	34.097730	110.979068
2.5300	34.024904	110.073631
2.5400	33.948574	109.167150
2.5500	33.869273	108.260230
2.5600	33.787565	107.353347
2.5700	33.704036	106.446854
2.5800	33.619289	105.540988
2.5900	33.533935	104.635878
2.6000	33.448581	103.731557
2.6100	33.363828	102.827966
2.6200	33.280258	101.924974
2.6300	33.198428	101.022383
2.6400	33.118861	100.119944
2.6500	33.042043	99.217365
2.6600	32.968412	98.314325
2.6700	32.898356	97.410484
2.6800	32.832210	96.505491
2.6900	32.770247	95.598991
2.7000	32.712682	94.690633
2.7100	32.659669	93.780072
2.7200	32.611298	92.866975
2.7300	32.567600	91.951023
2.7400	32.528542	91.031909
2.7500	32.494038	90.109339
2.7600	32.463944	89.183027
2.7700	32.438067	88.252699
2.7800	32.416166	87.318083
2.7900	32.397957	86.378909
2.8000	32.383119	85.434904
2.8100	32.371298	84.485789
2.8200	32.362114	83.531272
2.8300	32.355162	82.571053
2.8400	32.350024	81.604813
2.8500	32.346268	80.632218
2.8600	32.343458	79.652918
2.8700	32.341153	78.666548
2.8800	32.338920	77.672729
2.8900	32.336331	76.671074
2.9000	32.332971	75.661187
2.9100	32.328441	74.642673
2.9200	32.322363	73.615141
2.9300	32.314379	72.578211
2.9400	32.304158	71.531523
2.9500	32.291396	70.474742
2.9600	32.275820	69.407570
2.9700	32.257188	68.329753
2.9800	32.235291	67.241091
2.9900	32.209955	66.141447
3.0000	32.181040	65.030759
3.0100	32.148440	63.909051
3.0200	32.112087	62.776440
3.0300	32.071945	61.633152
3.0400	32.028014	60.479528
3.0500	31.980324	59.316039
3.0600	31.928941	58.143289
3.0700	31.873957	56.962026
3.0800	31.815494	55.773146
3.0900	31.753698	54.577695
3.1000	31.688741	53.376869
3.1100	31.620812	52.172011
3.1200	31.550120	50.964605
3.1300	31.476887	49.756262
3.1400	31.401346	48.548716
3.1500	31.323740	47.343798
3.1600	31.244315	46.143427
3.1700	31.163318	44.949585
3.1800	31.080995	43.764299
3.1900	30.997585	42.589615
3.2000	30.913321	41.427581
3.2100	30.828424	40.280217
3.2200	30.743103	39.149497
3.2300	30.657549	38.037329
3.2400	30.571938	36.945528
3.2500	30.486426	35.875804
3.2600	30.401151	34.829740
3.2700	30.316231	33.808784
3.2800	30.231762	32.814230
3.2900	30.147822	31.847217
